PathFileType	4	(X/Y/Z)	/Users/itak/Documents/Research/Walk-IL/dataset/trc/00412_00012.trc
DataRate	CameraRate	NumFrames	NumMarkers	Units	OrigDataRate	OrigDataStartFrame	OrigNumFrames
100.000000	100.000000	4	54	mm	100.000000	54	438
Frame#	Time	LPSI			L3			STRN			T10			C7			CLAV			RBAK			LBAK			LSHO			LUPA			LAEL			LAOL			LWTS			LWPS			LFRA			LIFD			LHPS			LHTS			RSHO			RUPA			RAEL			RAOL			RWTS			RWPS			RFRA			RIFD			RHTS			RHPS			RBHD			LFHD			RFHD			LBHD			LHIP			RHIP			RASI			LASI			LKNE			LTHI			LANK			LTIP			LTOE			LMT1			LMT5			LHEE			RKNE			RTHI			RANK			RTIP			RTOE			RMT1			RMT5			RHEE			RPSI			*53			
		X1	Y1	Z1	X2	Y2	Z2	X3	Y3	Z3	X4	Y4	Z4	X5	Y5	Z5	X6	Y6	Z6	X7	Y7	Z7	X8	Y8	Z8	X9	Y9	Z9	X10	Y10	Z10	X11	Y11	Z11	X12	Y12	Z12	X13	Y13	Z13	X14	Y14	Z14	X15	Y15	Z15	X16	Y16	Z16	X17	Y17	Z17	X18	Y18	Z18	X19	Y19	Z19	X20	Y20	Z20	X21	Y21	Z21	X22	Y22	Z22	X23	Y23	Z23	X24	Y24	Z24	X25	Y25	Z25	X26	Y26	Z26	X27	Y27	Z27	X28	Y28	Z28	X29	Y29	Z29	X30	Y30	Z30	X31	Y31	Z31	X32	Y32	Z32	X33	Y33	Z33	X34	Y34	Z34	X35	Y35	Z35	X36	Y36	Z36	X37	Y37	Z37	X38	Y38	Z38	X39	Y39	Z39	X40	Y40	Z40	X41	Y41	Z41	X42	Y42	Z42	X43	Y43	Z43	X44	Y44	Z44	X45	Y45	Z45	X46	Y46	Z46	X47	Y47	Z47	X48	Y48	Z48	X49	Y49	Z49	X50	Y50	Z50	X51	Y51	Z51	X52	Y52	Z52	X53	Y53	Z53	X54	Y54	Z54	

55	0.54	-889.5036010742188	982.432861328125	474.831787109375	-892.3214721679688	1057.140991210938	541.610595703125	-661.9282836914062	1214.588134765625	563.1470336914062	-901.9580688476562	1158.951049804688	534.001220703125	-870.5078125	1409.524169921875	524.39111328125	-715.4164428710938	1332.9072265625	553.6331787109375	-918.6870727539062	1263.208740234375	589.9376831054688	-867.695068359375	1370.503295898438	418.6541137695312	-772.6325073242188	1385.649169921875	382.6835632324219	-777.4563598632812	1268.073852539062	310.3141479492188	-744.1165161132812	1069.738159179688	298.587646484375	-815.9649658203125	1049.138061523438	338.517333984375	-667.91015625	859.8270263671875	382.982177734375	-689.4033813476562	842.7770385742188	305.4081420898438	-721.6018676757812	965.4840087890625	299.4555969238281	-664.4140625	681.5823364257812	388.9888610839844	-675.6477661132812	757.9617309570312	322.494140625	-640.7301025390625	763.8143920898438	374.8559265136719	-830.7460327148438	1389.87109375	692.089111328125	-846.2734375	1324.162475585938	750.8969116210938	-818.9324951171875	1062.393188476562	796.1950073242188	-844.7566528320312	1051.647094726562	706.5224609375	-685.0230712890625	852.0283203125	759.99560546875	-717.7958984375	840.5328369140625	823.7737426757812	-787.6455688476562	999.2721557617188	811.6465454101562	-685.2274169921875	680.0634155273438	759.9679565429688	-664.28662109375	746.1062622070312	778.1051635742188	-711.4058837890625	751.0425415039062	824.232177734375	-839.69482421875	1607.675048828125	605.3495483398438	-670.28759765625	1594.327880859375	499.9565734863281	-705.56005859375	1607.276977539062	616.9337768554688	-810.3584594726562	1588.526123046875	446.6253051757812	-789.2940063476562	966.724853515625	369.8691101074219	-820.461669921875	967.9390869140625	726.4586791992188	-682.5618896484375	973.447265625	680.4107055664062	-681.8175659179688	965.4343872070312	417.3379821777344	-753.4915771484375	473.5223999023438	394.1099243164062	-758.89697265625	616.387939453125	380.9967956542969	-853.6729736328125	41.07405471801758	424.6455993652344	-802.9851684570312	242.5684051513672	398.3648986816406	-651.4073486328125	43.42377471923828	519.4660034179688	-736.4159545898438	42.39932632446289	537.425537109375	-725.5892333984375	41.47409439086914	431.7727355957031	-901.0059814453125	38.95627212524414	474.1845092773438	-778.8457641601562	475.9312133789062	705.9393920898438	-737.8017578125	739.7936401367188	728.9564208984375	-834.576171875	55.91279983520508	671.5067138671875	-772.0264282226562	349.314697265625	691.5216674804688	-649.411376953125	42.26072692871094	624.4865112304688	-722.8576049804688	44.4744758605957	586.9807739257812	-751.2872314453125	45.72172546386719	683.944580078125	-902.9813842773438	44.09152603149414	612.8102416992188	-894.7090454101562	990.7122192382812	606.2078247070312	nan	nan	nan	
56	0.55	-889.4744262695312	982.4295654296875	474.8591918945312	-892.319091796875	1057.146728515625	541.6248779296875	-661.8810424804688	1214.5810546875	563.160400390625	-901.9625244140625	1158.963500976562	534.01806640625	-870.4922485351562	1409.526977539062	524.4203491210938	-715.3246459960938	1332.91357421875	553.6310424804688	-918.68017578125	1263.220947265625	589.9549560546875	-867.6616821289062	1370.511108398438	418.6872253417969	-772.6019897460938	1385.652954101562	382.70947265625	-777.4332885742188	1268.0771484375	310.3328857421875	-744.0977783203125	1069.738647460938	298.6041564941406	-815.9442138671875	1049.13720703125	338.5368347167969	-667.9503173828125	859.8312377929688	382.9866638183594	-689.4039306640625	842.7727661132812	305.4176025390625	-721.59521484375	965.4801025390625	299.4719543457031	-664.413818359375	681.579833984375	388.9979248046875	-675.6593017578125	757.9630126953125	322.4970092773438	-640.7118530273438	763.813720703125	374.8605041503906	-830.7171630859375	1389.8642578125	692.1168212890625	-846.2332153320312	1324.159301757812	750.9246215820312	-818.9304809570312	1062.38720703125	796.2101440429688	-844.7355346679688	1051.654174804688	706.5487670898438	-685.02294921875	852.0321044921875	760.0223388671875	-717.8076782226562	840.5133056640625	823.8008422851562	-787.629638671875	999.2750854492188	811.6763916015625	-685.3309326171875	680.0557861328125	759.9973754882812	-664.3704833984375	746.06201171875	778.1630249023438	-711.4029541015625	751.0409545898438	824.2828979492188	-839.6397705078125	1607.643798828125	605.3886108398438	-670.246826171875	1594.330078125	499.9959411621094	-705.5082397460938	1607.26220703125	616.9561157226562	-810.2877807617188	1588.523315429688	446.6547546386719	-789.2786865234375	966.722900390625	369.8915405273438	-820.4517211914062	967.9332885742188	726.4871215820312	-682.4594116210938	973.4678955078125	680.4439697265625	-681.8145141601562	965.4334716796875	417.3582153320312	-753.4797973632812	473.5237731933594	394.120849609375	-758.882568359375	616.3858642578125	381.0133972167969	-853.6736450195312	41.07429885864258	424.6463317871094	-802.9813232421875	242.5656433105469	398.3722229003906	-651.41552734375	43.42612457275391	519.4639892578125	-736.414794921875	42.39948654174805	537.4251708984375	-725.5883178710938	41.47547912597656	431.7752075195312	-900.95361328125	38.93827438354492	474.12158203125	-778.8427734375	475.927734375	705.9422607421875	-737.78173828125	739.7857666015625	728.970703125	-834.5740966796875	55.90505599975586	671.50634765625	-772.0287475585938	349.3051452636719	691.5335693359375	-649.4115600585938	42.26045608520508	624.4862060546875	-722.8577880859375	44.47422790527344	586.9811401367188	-751.28271484375	45.7241096496582	683.9420166015625	-902.9610595703125	44.11672210693359	612.8754272460938	-894.6596069335938	990.6653442382812	606.281982421875	nan	nan	nan	
57	0.5600000000000001	-889.4515380859375	982.4280395507812	474.8815307617188	-892.3175048828125	1057.14990234375	541.6401977539062	-661.8328247070312	1214.572265625	563.1774291992188	-901.9267578125	1158.96728515625	534.0555419921875	-870.4759521484375	1409.533081054688	524.4490356445312	-715.22900390625	1332.92138671875	553.6305541992188	-918.6720581054688	1263.234619140625	589.974609375	-867.6267700195312	1370.522705078125	418.7232971191406	-772.5728149414062	1385.656372070312	382.7350769042969	-777.4039916992188	1268.080322265625	310.3539123535156	-744.0742797851562	1069.740478515625	298.6221618652344	-815.919677734375	1049.137084960938	338.5549621582031	-667.9847412109375	859.8363647460938	382.9935607910156	-689.3994750976562	842.7694702148438	305.4287414550781	-721.5828247070312	965.4765625	299.4906921386719	-664.4102783203125	681.5767822265625	389.0079040527344	-675.6721801757812	757.96484375	322.4988098144531	-640.6895141601562	763.8125	374.8702087402344	-830.6882934570312	1389.857421875	692.145751953125	-846.1917114257812	1324.156372070312	750.9528198242188	-818.928955078125	1062.38037109375	796.2290649414062	-844.7183227539062	1051.662109375	706.5753784179688	-685.0213012695312	852.0377807617188	760.0497436523438	-717.8211059570312	840.4945068359375	823.8310546875	-787.6139526367188	999.2779541015625	811.7064819335938	-685.4287719726562	680.05029296875	760.030029296875	-664.4342041015625	746.0231323242188	778.2208251953125	-711.3995971679688	751.0413818359375	824.3367309570312	-839.5806274414062	1607.61865234375	605.4216918945312	-670.2062377929688	1594.332641601562	500.033447265625	-705.4556884765625	1607.248901367188	616.9767456054688	-810.2142944335938	1588.521118164062	446.6871032714844	-789.26806640625	966.7215576171875	369.9096984863281	-820.4400024414062	967.9246215820312	726.5120849609375	-682.349853515625	973.4895629882812	680.4810180664062	-681.8103637695312	965.4323120117188	417.3790588378906	-753.471435546875	473.5248718261719	394.1279602050781	-758.8644409179688	616.383056640625	381.0300903320312	-853.6744384765625	41.07478713989258	424.6463623046875	-802.9747924804688	242.5618591308594	398.37939453125	-651.4161987304688	43.42645263671875	519.4635620117188	-736.4141845703125	42.39962768554688	537.4249267578125	-725.5857543945312	41.47567749023438	431.7767639160156	-900.9119262695312	38.92289352416992	474.071533203125	-778.8364868164062	475.9209899902344	705.9452514648438	-737.7608032226562	739.77734375	728.9769287109375	-834.5724487304688	55.89785766601562	671.5077514648438	-772.026123046875	349.2968139648438	691.5445556640625	-649.4127807617188	42.25974655151367	624.4861450195312	-722.8554077148438	44.47479248046875	586.9842529296875	-751.2794799804688	45.72552490234375	683.940673828125	-902.9343872070312	44.14979553222656	612.9613647460938	-894.6123657226562	990.6223754882812	606.3514404296875	nan	nan	nan	
58	0.5700000000000001	-889.436279296875	982.4287109375	474.8978271484375	-892.3180541992188	1057.150634765625	541.6575317382812	-661.7842407226562	1214.562133789062	563.1976928710938	-901.8560180664062	1158.962768554688	534.1105346679688	-870.4589233398438	1409.5419921875	524.47705078125	-715.1369018554688	1332.92919921875	553.6339111328125	-918.66357421875	1263.249267578125	589.9951782226562	-867.5907592773438	1370.537963867188	418.7624816894531	-772.5442504882812	1385.65869140625	382.7600402832031	-777.368408203125	1268.08349609375	310.3773498535156	-744.0460205078125	1069.74462890625	298.642822265625	-815.891357421875	1049.138305664062	338.5729675292969	-668.0036010742188	859.8412475585938	383.0032348632812	-689.3897705078125	842.767822265625	305.44189453125	-721.5633544921875	965.4740600585938	299.5123596191406	-664.4032592773438	681.5733642578125	389.0184326171875	-675.6873779296875	757.9674072265625	322.4992065429688	-640.6637573242188	763.81005859375	374.8847961425781	-830.6599731445312	1389.850708007812	692.1755981445312	-846.1492309570312	1324.153686523438	750.9821166992188	-818.9320678710938	1062.372924804688	796.251708984375	-844.7055053710938	1051.670288085938	706.604248046875	-685.0164794921875	852.0440063476562	760.0785522460938	-717.8346557617188	840.4766235351562	823.8638305664062	-787.5968017578125	999.2808227539062	811.7371826171875	-685.5160522460938	680.0468139648438	760.065185546875	-664.462890625	745.9929809570312	778.2763671875	-711.3950805664062	751.04296875	824.3924560546875	-839.5167236328125	1607.601440429688	605.4492797851562	-670.1658325195312	1594.334594726562	500.0689392089844	-705.4032592773438	1607.2373046875	616.9962768554688	-810.1369018554688	1588.519165039062	446.7221069335938	-789.2604370117188	966.7206420898438	369.9252014160156	-820.4259643554688	967.9144287109375	726.53466796875	-682.24365234375	973.5101928710938	680.5196533203125	-681.8007202148438	965.4313354492188	417.4015502929688	-753.4651489257812	473.5254821777344	394.1315307617188	-758.8423461914062	616.379638671875	381.0467834472656	-853.6751708984375	41.07533264160156	424.6457214355469	-802.9659423828125	242.5574798583984	398.38623046875	-651.4093017578125	43.42475891113281	519.4647827148438	-736.4141845703125	42.39967727661133	537.425048828125	-725.58251953125	41.47509002685547	431.7774353027344	-900.8897094726562	38.91292953491211	474.0450439453125	-778.8287963867188	475.9112243652344	705.9482421875	-737.739013671875	739.7683715820312	728.9757080078125	-834.5715942382812	55.89300537109375	671.5103149414062	-772.0200805664062	349.2890625	691.555419921875	-649.4147338867188	42.25876998901367	624.4864501953125	-722.849609375	44.4764518737793	586.9900512695312	-751.2764892578125	45.72713851928711	683.939453125	-902.9075927734375	44.18471527099609	613.0507202148438	-894.5751342773438	990.5931396484375	606.4069213867188	nan	nan	nan	
